<?xml version="1.0" encoding="UTF-8"?>
<!DOCTYPE svg PUBLIC "-//W3C//DTD SVG 1.1//EN" "http://www.w3.org/Graphics/SVG/1.1/DTD/svg11.dtd">
<!-- Creator: CorelDRAW 2021 (64-Bit) -->
<svg xmlns="http://www.w3.org/2000/svg" xml:space="preserve" width="500mm" height="500mm" version="1.1" style="shape-rendering:geometricPrecision; text-rendering:geometricPrecision; image-rendering:optimizeQuality; fill-rule:evenodd; clip-rule:evenodd"
viewBox="0 0 50000 50000"
 xmlns:xlink="http://www.w3.org/1999/xlink"
 xmlns:xodm="http://www.corel.com/coreldraw/odm/2003">
 <defs>
  <style type="text/css">
   <![CDATA[
    .fil0 {fill:#0A0A0A}
   ]]>
  </style>
 </defs>
 <g id="Layer_x0020_1">
  <metadata id="CorelCorpID_0Corel-Layer"/>
  <g id="_2763825542896">
   <path class="fil0" d="M11475.74 24219.37c581.23,175.37 5400.36,2994.35 6292.39,3515.33 703.87,411.09 760.93,706.8 1473.62,283.6l4663.18 -2749.65c-245.06,-277.85 -790.74,-544.48 -1162.26,-735.87 -615.69,-317.17 -633.8,-65.47 -1278.42,308.5 -866.08,502.4 -1650.61,963.24 -2550.68,1459.32l-103.84 890.83c-83.79,270.64 -64.11,217.13 -166.54,365.61l-130.94 -1263.65 -4485.62 -2697.9c-26.94,-21.2 -58,-47.3 -83.74,-69.23l3967.76 1996.38c1171.92,647.65 865.09,426.18 2062.02,-233.73 659.18,-363.42 1425.23,-758.12 1990.33,-1179.38 -543.12,-302.03 -1177.09,-879.71 -1735.4,-653.39 -627.12,254.31 -1084.42,965.59 -1763.33,692.6 -581.91,-234.05 -3203.39,-1684.45 -3426.47,-2057.16 241.93,-322.6 1659.28,-1059.46 2180.73,-1354.54 986.58,-558.37 1271.69,-1115.69 2327.91,-450.09 1444.13,910.04 3095.16,1779.41 4568.11,2619.08 1536.17,875.68 3121.36,1746.83 4570.04,2617.4 534.71,321.34 587.55,561.18 1189.61,282.81 755.5,-349.33 2648.05,-1629.83 3648.77,-1947.68l-3346.9 2100.18c-700.74,402.89 -503.18,307.35 -625.04,1174.11l-106.66 -242.04c-395.63,-1029.39 -479.11,-757.7 -2250.27,-1815.43 -916.05,-547.04 -1763.91,-1003.55 -2717.18,-1565.05 -898.45,-529.23 -4877.23,-2951.22 -5593.84,-3122.35l-122.01 1614.22c1044.84,333.82 7410.48,4285.66 8848.97,5143.91 2341.58,1397.14 1320.97,1421.42 4561,-431.61 1409.52,-806.14 3031,-1813.76 4469.23,-2557.83l6.68 -2072.56 -6197.52 -3580.64c-1213.74,-697.71 -853.86,-633.75 -3064.62,657.2 -1040.56,607.59 -2024.21,1140.12 -3086.33,1768.34 1112.71,781.71 1483.02,1060.14 2272.15,599.61 775.81,-452.75 1452.9,-835.75 2181.93,-1279.1 877.31,-533.57 585.31,-530.12 2258.26,456.14 585.83,345.41 1852.71,957.5 2165.18,1385.92 -313.56,399.08 -2197.81,1349.89 -2804.57,1714.2 -1109.47,666.12 -839.4,543.96 -2898.18,-668.52 -1958.38,-1153.33 -3845.34,-2291.52 -5811.28,-3445.58 -3607.95,-2117.93 -2121.85,-2151.19 -5745.77,-118.36 -621.64,348.7 -4205.37,2162.51 -4380.42,2816.68 -127.96,478.33 -55.34,1300.97 -60.04,1829.37z"/>
   <path class="fil0" d="M26327.39 22099.04c2333.81,1540.56 1690.97,103.38 3069.99,-93.4 510.55,-72.83 1119.5,601.65 1603.11,781.3 415.47,154.38 810.42,-144.62 1317.42,-496.87 214.21,-148.84 142.52,-98.1 265.47,-198.49l-2920.47 -1765.21 -185.07 1184.65 -155.06 -1178.59c-586.4,303.22 -2648.83,1367.64 -2995.39,1766.61z"/>
   <path class="fil0" d="M15615.48 22034.93c1110.78,1106.19 1951.49,867.13 3176.08,-219.64l-184.03 -1453.68 -2992.05 1673.32z"/>
  </g>
 </g>
</svg>
